<svg id="visual" viewBox="0 0 960 540" width="960" height="540" xmlns="http://www.w3.org/2000/svg" xmlns:xlink="http://www.w3.org/1999/xlink" version="1.1"><g stroke-width="1" stroke-linejoin="bevel"><path d="M479 280L455 276L492 315Z" fill="#205a7a" stroke="#205a7a"></path><path d="M403 333L480 354L492 315Z" fill="#297ea6" stroke="#297ea6"></path><path d="M455 276L403 333L492 315Z" fill="#205a7a" stroke="#205a7a"></path><path d="M455 276L397 328L403 333Z" fill="#205a7a" stroke="#205a7a"></path><path d="M532 293L479 280L492 315Z" fill="#19435d" stroke="#19435d"></path><path d="M532 293L514 260L479 280Z" fill="#246688" stroke="#246688"></path><path d="M479 280L471 196L455 276Z" fill="#00101c" stroke="#00101c"></path><path d="M527 369L532 293L492 315Z" fill="#081a28" stroke="#081a28"></path><path d="M408 382L426 368L403 333Z" fill="#277297" stroke="#277297"></path><path d="M403 333L426 368L480 354Z" fill="#15384f" stroke="#15384f"></path><path d="M371 288L373 310L397 328Z" fill="#15384f" stroke="#15384f"></path><path d="M363 347L408 382L403 333Z" fill="#00101c" stroke="#00101c"></path><path d="M488 395L527 369L480 354Z" fill="#19435d" stroke="#19435d"></path><path d="M480 354L527 369L492 315Z" fill="#246688" stroke="#246688"></path><path d="M426 368L488 395L480 354Z" fill="#00101c" stroke="#00101c"></path><path d="M365 268L371 288L455 276Z" fill="#112e42" stroke="#112e42"></path><path d="M455 276L371 288L397 328Z" fill="#081a28" stroke="#081a28"></path><path d="M363 347L403 333L397 328Z" fill="#0c2435" stroke="#0c2435"></path><path d="M426 368L417 428L488 395Z" fill="#081a28" stroke="#081a28"></path><path d="M575 251L549 260L600 274Z" fill="#15384f" stroke="#15384f"></path><path d="M532 293L549 260L514 260Z" fill="#0c2435" stroke="#0c2435"></path><path d="M426 180L365 268L455 276Z" fill="#19435d" stroke="#19435d"></path><path d="M320 381L363 347L281 274Z" fill="#246688" stroke="#246688"></path><path d="M363 347L373 310L281 274Z" fill="#112e42" stroke="#112e42"></path><path d="M373 310L363 347L397 328Z" fill="#15384f" stroke="#15384f"></path><path d="M555 384L550 369L527 369Z" fill="#277297" stroke="#277297"></path><path d="M527 369L550 369L532 293Z" fill="#205a7a" stroke="#205a7a"></path><path d="M539 183L471 196L514 260Z" fill="#081a28" stroke="#081a28"></path><path d="M514 260L471 196L479 280Z" fill="#277297" stroke="#277297"></path><path d="M524 443L555 384L527 369Z" fill="#246688" stroke="#246688"></path><path d="M600 274L549 260L532 293Z" fill="#1d4e6b" stroke="#1d4e6b"></path><path d="M474 155L461 181L471 196Z" fill="#112e42" stroke="#112e42"></path><path d="M471 196L426 180L455 276Z" fill="#0c2435" stroke="#0c2435"></path><path d="M600 274L532 293L550 369Z" fill="#15384f" stroke="#15384f"></path><path d="M549 260L539 183L514 260Z" fill="#0c2435" stroke="#0c2435"></path><path d="M412 440L417 428L380 440Z" fill="#246688" stroke="#246688"></path><path d="M408 382L417 428L426 368Z" fill="#0c2435" stroke="#0c2435"></path><path d="M488 395L524 443L527 369Z" fill="#081a28" stroke="#081a28"></path><path d="M461 181L426 180L471 196Z" fill="#112e42" stroke="#112e42"></path><path d="M629 292L600 274L634 309Z" fill="#205a7a" stroke="#205a7a"></path><path d="M380 440L417 428L408 382Z" fill="#246688" stroke="#246688"></path><path d="M417 428L524 443L488 395Z" fill="#15384f" stroke="#15384f"></path><path d="M628 231L578 222L575 251Z" fill="#205a7a" stroke="#205a7a"></path><path d="M575 251L578 222L549 260Z" fill="#246688" stroke="#246688"></path><path d="M567 201L539 183L549 260Z" fill="#19435d" stroke="#19435d"></path><path d="M461 181L474 155L426 180Z" fill="#1d4e6b" stroke="#1d4e6b"></path><path d="M426 180L349 213L365 268Z" fill="#081a28" stroke="#081a28"></path><path d="M332 398L343 393L320 381Z" fill="#19435d" stroke="#19435d"></path><path d="M343 393L363 347L320 381Z" fill="#0c2435" stroke="#0c2435"></path><path d="M363 347L343 393L408 382Z" fill="#15384f" stroke="#15384f"></path><path d="M578 222L567 201L549 260Z" fill="#112e42" stroke="#112e42"></path><path d="M474 511L524 443L417 428Z" fill="#246688" stroke="#246688"></path><path d="M539 183L474 155L471 196Z" fill="#277297" stroke="#277297"></path><path d="M426 180L376 161L349 213Z" fill="#277297" stroke="#277297"></path><path d="M349 424L380 440L408 382Z" fill="#112e42" stroke="#112e42"></path><path d="M412 440L474 511L417 428Z" fill="#15384f" stroke="#15384f"></path><path d="M373 310L371 288L281 274Z" fill="#112e42" stroke="#112e42"></path><path d="M343 393L349 424L408 382Z" fill="#112e42" stroke="#112e42"></path><path d="M307 248L371 288L365 268Z" fill="#277297" stroke="#277297"></path><path d="M332 398L349 424L343 393Z" fill="#081a28" stroke="#081a28"></path><path d="M316 423L349 424L332 398Z" fill="#112e42" stroke="#112e42"></path><path d="M349 213L307 248L365 268Z" fill="#297ea6" stroke="#297ea6"></path><path d="M634 309L550 369L654 380Z" fill="#297ea6" stroke="#297ea6"></path><path d="M634 309L600 274L550 369Z" fill="#00101c" stroke="#00101c"></path><path d="M628 231L587 193L578 222Z" fill="#15384f" stroke="#15384f"></path><path d="M578 222L587 193L567 201Z" fill="#246688" stroke="#246688"></path><path d="M628 231L575 251L600 274Z" fill="#205a7a" stroke="#205a7a"></path><path d="M567 201L587 193L539 183Z" fill="#297ea6" stroke="#297ea6"></path><path d="M508 105L437 118L474 155Z" fill="#19435d" stroke="#19435d"></path><path d="M407 130L376 161L426 180Z" fill="#246688" stroke="#246688"></path><path d="M349 213L299 232L307 248Z" fill="#19435d" stroke="#19435d"></path><path d="M281 274L309 383L320 381Z" fill="#00101c" stroke="#00101c"></path><path d="M320 381L309 383L332 398Z" fill="#205a7a" stroke="#205a7a"></path><path d="M654 380L550 369L555 384Z" fill="#205a7a" stroke="#205a7a"></path><path d="M634 309L635 288L629 292Z" fill="#1d4e6b" stroke="#1d4e6b"></path><path d="M629 292L635 288L600 274Z" fill="#297ea6" stroke="#297ea6"></path><path d="M345 146L319 199L349 213Z" fill="#0c2435" stroke="#0c2435"></path><path d="M319 199L299 232L349 213Z" fill="#277297" stroke="#277297"></path><path d="M307 248L281 274L371 288Z" fill="#1d4e6b" stroke="#1d4e6b"></path><path d="M635 288L628 231L600 274Z" fill="#277297" stroke="#277297"></path><path d="M299 232L281 274L307 248Z" fill="#00101c" stroke="#00101c"></path><path d="M437 118L426 180L474 155Z" fill="#19435d" stroke="#19435d"></path><path d="M437 118L407 130L426 180Z" fill="#205a7a" stroke="#205a7a"></path><path d="M376 161L345 146L349 213Z" fill="#00101c" stroke="#00101c"></path><path d="M275 401L316 423L309 383Z" fill="#246688" stroke="#246688"></path><path d="M309 383L316 423L332 398Z" fill="#00101c" stroke="#00101c"></path><path d="M349 424L363 466L380 440Z" fill="#15384f" stroke="#15384f"></path><path d="M350 465L363 466L349 424Z" fill="#0c2435" stroke="#0c2435"></path><path d="M380 440L372 484L412 440Z" fill="#081a28" stroke="#081a28"></path><path d="M508 105L474 155L539 183Z" fill="#277297" stroke="#277297"></path><path d="M316 423L350 465L349 424Z" fill="#277297" stroke="#277297"></path><path d="M352 134L376 161L407 130Z" fill="#0c2435" stroke="#0c2435"></path><path d="M352 134L345 146L376 161Z" fill="#246688" stroke="#246688"></path><path d="M237 212L262 264L299 232Z" fill="#00101c" stroke="#00101c"></path><path d="M350 465L372 484L363 466Z" fill="#1d4e6b" stroke="#1d4e6b"></path><path d="M363 466L372 484L380 440Z" fill="#0c2435" stroke="#0c2435"></path><path d="M628 231L629 191L587 193Z" fill="#297ea6" stroke="#297ea6"></path><path d="M582 97L508 105L539 183Z" fill="#1d4e6b" stroke="#1d4e6b"></path><path d="M714 214L629 191L628 231Z" fill="#15384f" stroke="#15384f"></path><path d="M383 87L352 134L407 130Z" fill="#15384f" stroke="#15384f"></path><path d="M299 232L262 264L281 274Z" fill="#246688" stroke="#246688"></path><path d="M246 351L275 401L309 383Z" fill="#1d4e6b" stroke="#1d4e6b"></path><path d="M288 177L299 232L319 199Z" fill="#246688" stroke="#246688"></path><path d="M288 177L319 199L345 146Z" fill="#246688" stroke="#246688"></path><path d="M372 484L474 511L412 440Z" fill="#205a7a" stroke="#205a7a"></path><path d="M616 443L654 380L555 384Z" fill="#112e42" stroke="#112e42"></path><path d="M616 443L555 384L524 443Z" fill="#00101c" stroke="#00101c"></path><path d="M634 309L688 287L635 288Z" fill="#081a28" stroke="#081a28"></path><path d="M635 288L688 287L628 231Z" fill="#00101c" stroke="#00101c"></path><path d="M557 496L616 443L524 443Z" fill="#112e42" stroke="#112e42"></path><path d="M614 153L539 183L587 193Z" fill="#112e42" stroke="#112e42"></path><path d="M616 443L655 384L654 380Z" fill="#112e42" stroke="#112e42"></path><path d="M654 380L674 334L634 309Z" fill="#205a7a" stroke="#205a7a"></path><path d="M246 351L309 383L281 274Z" fill="#297ea6" stroke="#297ea6"></path><path d="M316 423L284 460L350 465Z" fill="#297ea6" stroke="#297ea6"></path><path d="M359 540L372 540L372 484Z" fill="#1d4e6b" stroke="#1d4e6b"></path><path d="M495 517L557 496L524 443Z" fill="#15384f" stroke="#15384f"></path><path d="M495 540L495 517L474 511Z" fill="#277297" stroke="#277297"></path><path d="M474 511L495 517L524 443Z" fill="#277297" stroke="#277297"></path><path d="M688 338L674 334L654 380Z" fill="#246688" stroke="#246688"></path><path d="M616 443L658 392L655 384Z" fill="#15384f" stroke="#15384f"></path><path d="M655 384L688 338L654 380Z" fill="#081a28" stroke="#081a28"></path><path d="M629 191L614 153L587 193Z" fill="#15384f" stroke="#15384f"></path><path d="M279 170L288 177L345 146Z" fill="#112e42" stroke="#112e42"></path><path d="M237 212L247 277L262 264Z" fill="#15384f" stroke="#15384f"></path><path d="M262 264L247 277L281 274Z" fill="#15384f" stroke="#15384f"></path><path d="M247 277L246 351L281 274Z" fill="#297ea6" stroke="#297ea6"></path><path d="M575 82L505 88L508 105Z" fill="#277297" stroke="#277297"></path><path d="M508 105L505 88L437 118Z" fill="#081a28" stroke="#081a28"></path><path d="M437 118L383 87L407 130Z" fill="#00101c" stroke="#00101c"></path><path d="M688 338L688 287L674 334Z" fill="#1d4e6b" stroke="#1d4e6b"></path><path d="M674 334L688 287L634 309Z" fill="#0c2435" stroke="#0c2435"></path><path d="M629 191L626 139L614 153Z" fill="#0c2435" stroke="#0c2435"></path><path d="M658 392L688 338L655 384Z" fill="#19435d" stroke="#19435d"></path><path d="M289 90L279 170L345 146Z" fill="#0c2435" stroke="#0c2435"></path><path d="M288 177L237 212L299 232Z" fill="#246688" stroke="#246688"></path><path d="M246 351L256 405L275 401Z" fill="#00101c" stroke="#00101c"></path><path d="M275 401L284 460L316 423Z" fill="#277297" stroke="#277297"></path><path d="M424 40L383 87L437 118Z" fill="#081a28" stroke="#081a28"></path><path d="M352 134L289 90L345 146Z" fill="#246688" stroke="#246688"></path><path d="M664 144L626 139L629 191Z" fill="#0c2435" stroke="#0c2435"></path><path d="M614 153L582 97L539 183Z" fill="#081a28" stroke="#081a28"></path><path d="M261 449L284 460L275 401Z" fill="#277297" stroke="#277297"></path><path d="M372 540L495 540L474 511Z" fill="#205a7a" stroke="#205a7a"></path><path d="M495 517L528 540L557 496Z" fill="#00101c" stroke="#00101c"></path><path d="M372 540L474 511L372 484Z" fill="#15384f" stroke="#15384f"></path><path d="M575 82L496 72L505 88Z" fill="#15384f" stroke="#15384f"></path><path d="M505 88L496 72L437 118Z" fill="#15384f" stroke="#15384f"></path><path d="M626 139L582 97L614 153Z" fill="#19435d" stroke="#19435d"></path><path d="M495 540L528 540L495 517Z" fill="#205a7a" stroke="#205a7a"></path><path d="M557 496L659 477L616 443Z" fill="#15384f" stroke="#15384f"></path><path d="M238 187L237 212L288 177Z" fill="#112e42" stroke="#112e42"></path><path d="M247 277L205 318L246 351Z" fill="#0c2435" stroke="#0c2435"></path><path d="M256 405L261 449L275 401Z" fill="#112e42" stroke="#112e42"></path><path d="M212 406L261 449L256 405Z" fill="#277297" stroke="#277297"></path><path d="M372 484L350 465L333 540Z" fill="#00101c" stroke="#00101c"></path><path d="M359 540L372 484L333 540Z" fill="#0c2435" stroke="#0c2435"></path><path d="M613 89L575 82L582 97Z" fill="#246688" stroke="#246688"></path><path d="M582 97L575 82L508 105Z" fill="#1d4e6b" stroke="#1d4e6b"></path><path d="M225 133L238 187L279 170Z" fill="#277297" stroke="#277297"></path><path d="M279 170L238 187L288 177Z" fill="#205a7a" stroke="#205a7a"></path><path d="M333 540L350 465L284 460Z" fill="#277297" stroke="#277297"></path><path d="M187 318L205 318L247 277Z" fill="#00101c" stroke="#00101c"></path><path d="M246 351L212 406L256 405Z" fill="#081a28" stroke="#081a28"></path><path d="M195 329L205 318L187 318Z" fill="#205a7a" stroke="#205a7a"></path><path d="M740 282L717 266L688 287Z" fill="#297ea6" stroke="#297ea6"></path><path d="M688 287L715 231L628 231Z" fill="#1d4e6b" stroke="#1d4e6b"></path><path d="M714 214L664 144L629 191Z" fill="#081a28" stroke="#081a28"></path><path d="M626 139L613 89L582 97Z" fill="#19435d" stroke="#19435d"></path><path d="M605 548L659 477L557 496Z" fill="#1d4e6b" stroke="#1d4e6b"></path><path d="M616 443L659 477L658 392Z" fill="#246688" stroke="#246688"></path><path d="M658 392L728 386L688 338Z" fill="#081a28" stroke="#081a28"></path><path d="M751 312L740 282L688 287Z" fill="#205a7a" stroke="#205a7a"></path><path d="M717 266L715 231L688 287Z" fill="#277297" stroke="#277297"></path><path d="M663 90L613 89L626 139Z" fill="#00101c" stroke="#00101c"></path><path d="M251 498L333 540L284 460Z" fill="#081a28" stroke="#081a28"></path><path d="M715 231L714 214L628 231Z" fill="#112e42" stroke="#112e42"></path><path d="M187 318L247 277L134 278Z" fill="#205a7a" stroke="#205a7a"></path><path d="M205 318L195 329L246 351Z" fill="#297ea6" stroke="#297ea6"></path><path d="M496 72L424 40L437 118Z" fill="#297ea6" stroke="#297ea6"></path><path d="M383 87L316 72L352 134Z" fill="#00101c" stroke="#00101c"></path><path d="M474 0L424 40L496 72Z" fill="#205a7a" stroke="#205a7a"></path><path d="M511 0L496 72L520 0Z" fill="#19435d" stroke="#19435d"></path><path d="M195 329L212 406L246 351Z" fill="#112e42" stroke="#112e42"></path><path d="M261 449L251 498L284 460Z" fill="#205a7a" stroke="#205a7a"></path><path d="M372 540L506 573L495 540Z" fill="#205a7a" stroke="#205a7a"></path><path d="M495 540L506 573L528 540Z" fill="#112e42" stroke="#112e42"></path><path d="M528 540L605 548L557 496Z" fill="#112e42" stroke="#112e42"></path><path d="M359 540L506 573L372 540Z" fill="#1d4e6b" stroke="#1d4e6b"></path><path d="M333 540L506 573L359 540Z" fill="#277297" stroke="#277297"></path><path d="M134 278L247 277L237 212Z" fill="#0c2435" stroke="#0c2435"></path><path d="M195 329L167 357L212 406Z" fill="#1d4e6b" stroke="#1d4e6b"></path><path d="M318 35L316 72L383 87Z" fill="#277297" stroke="#277297"></path><path d="M316 72L289 90L352 134Z" fill="#297ea6" stroke="#297ea6"></path><path d="M723 412L728 386L658 392Z" fill="#081a28" stroke="#081a28"></path><path d="M717 266L728 220L715 231Z" fill="#112e42" stroke="#112e42"></path><path d="M715 231L728 220L714 214Z" fill="#081a28" stroke="#081a28"></path><path d="M751 312L688 287L688 338Z" fill="#277297" stroke="#277297"></path><path d="M740 282L728 220L717 266Z" fill="#0c2435" stroke="#0c2435"></path><path d="M714 214L727 141L664 144Z" fill="#205a7a" stroke="#205a7a"></path><path d="M569 591L605 548L528 540Z" fill="#246688" stroke="#246688"></path><path d="M659 477L723 412L658 392Z" fill="#205a7a" stroke="#205a7a"></path><path d="M741 456L723 412L659 477Z" fill="#112e42" stroke="#112e42"></path><path d="M625 72L595 54L613 89Z" fill="#246688" stroke="#246688"></path><path d="M613 89L595 54L575 82Z" fill="#112e42" stroke="#112e42"></path><path d="M625 72L613 89L663 90Z" fill="#297ea6" stroke="#297ea6"></path><path d="M663 90L626 139L664 144Z" fill="#205a7a" stroke="#205a7a"></path><path d="M178 449L251 498L261 449Z" fill="#0c2435" stroke="#0c2435"></path><path d="M728 386L751 312L688 338Z" fill="#19435d" stroke="#19435d"></path><path d="M740 282L811 215L728 220Z" fill="#246688" stroke="#246688"></path><path d="M814 358L751 312L728 386Z" fill="#19435d" stroke="#19435d"></path><path d="M289 90L225 133L279 170Z" fill="#15384f" stroke="#15384f"></path><path d="M238 187L191 174L237 212Z" fill="#15384f" stroke="#15384f"></path><path d="M692 91L663 90L664 144Z" fill="#0c2435" stroke="#0c2435"></path><path d="M625 72L600 43L595 54Z" fill="#081a28" stroke="#081a28"></path><path d="M569 591L645 540L605 548Z" fill="#0c2435" stroke="#0c2435"></path><path d="M605 548L645 540L659 477Z" fill="#297ea6" stroke="#297ea6"></path><path d="M595 0L600 43L616 0Z" fill="#0c2435" stroke="#0c2435"></path><path d="M520 0L496 72L575 82Z" fill="#205a7a" stroke="#205a7a"></path><path d="M241 69L222 130L225 133Z" fill="#00101c" stroke="#00101c"></path><path d="M225 133L191 174L238 187Z" fill="#297ea6" stroke="#297ea6"></path><path d="M241 69L225 133L289 90Z" fill="#1d4e6b" stroke="#1d4e6b"></path><path d="M140 351L167 357L187 318Z" fill="#0c2435" stroke="#0c2435"></path><path d="M187 318L167 357L195 329Z" fill="#0c2435" stroke="#0c2435"></path><path d="M240 540L252 540L251 498Z" fill="#112e42" stroke="#112e42"></path><path d="M222 130L191 174L225 133Z" fill="#297ea6" stroke="#297ea6"></path><path d="M240 540L569 591L506 573Z" fill="#205a7a" stroke="#205a7a"></path><path d="M506 573L569 591L528 540Z" fill="#297ea6" stroke="#297ea6"></path><path d="M511 0L474 0L496 72Z" fill="#246688" stroke="#246688"></path><path d="M394 0L318 35L383 87Z" fill="#277297" stroke="#277297"></path><path d="M394 0L383 87L424 40Z" fill="#205a7a" stroke="#205a7a"></path><path d="M316 72L308 31L289 90Z" fill="#081a28" stroke="#081a28"></path><path d="M684 540L672 532L645 540Z" fill="#297ea6" stroke="#297ea6"></path><path d="M645 540L672 532L659 477Z" fill="#112e42" stroke="#112e42"></path><path d="M520 0L575 82L595 54Z" fill="#00101c" stroke="#00101c"></path><path d="M600 43L520 0L595 54Z" fill="#15384f" stroke="#15384f"></path><path d="M728 220L727 141L714 214Z" fill="#297ea6" stroke="#297ea6"></path><path d="M811 215L727 141L728 220Z" fill="#081a28" stroke="#081a28"></path><path d="M474 0L394 0L424 40Z" fill="#15384f" stroke="#15384f"></path><path d="M251 498L252 540L333 540Z" fill="#1d4e6b" stroke="#1d4e6b"></path><path d="M333 540L252 540L506 573Z" fill="#246688" stroke="#246688"></path><path d="M178 449L261 449L212 406Z" fill="#297ea6" stroke="#297ea6"></path><path d="M705 94L692 91L664 144Z" fill="#19435d" stroke="#19435d"></path><path d="M616 0L600 43L625 72Z" fill="#297ea6" stroke="#297ea6"></path><path d="M600 43L595 0L520 0Z" fill="#277297" stroke="#277297"></path><path d="M339 0L308 31L318 35Z" fill="#1d4e6b" stroke="#1d4e6b"></path><path d="M318 35L308 31L316 72Z" fill="#1d4e6b" stroke="#1d4e6b"></path><path d="M727 508L741 456L659 477Z" fill="#00101c" stroke="#00101c"></path><path d="M723 412L783 405L728 386Z" fill="#081a28" stroke="#081a28"></path><path d="M167 357L178 449L212 406Z" fill="#112e42" stroke="#112e42"></path><path d="M569 591L684 540L645 540Z" fill="#205a7a" stroke="#205a7a"></path><path d="M672 532L727 508L659 477Z" fill="#205a7a" stroke="#205a7a"></path><path d="M727 141L705 94L664 144Z" fill="#0c2435" stroke="#0c2435"></path><path d="M616 0L625 72L679 0Z" fill="#112e42" stroke="#112e42"></path><path d="M226 540L240 540L251 498Z" fill="#19435d" stroke="#19435d"></path><path d="M252 540L240 540L506 573Z" fill="#205a7a" stroke="#205a7a"></path><path d="M308 31L241 69L289 90Z" fill="#112e42" stroke="#112e42"></path><path d="M158 157L142 210L191 174Z" fill="#1d4e6b" stroke="#1d4e6b"></path><path d="M129 322L140 351L187 318Z" fill="#0c2435" stroke="#0c2435"></path><path d="M167 357L107 392L178 449Z" fill="#246688" stroke="#246688"></path><path d="M142 210L237 212L191 174Z" fill="#297ea6" stroke="#297ea6"></path><path d="M142 210L134 278L237 212Z" fill="#112e42" stroke="#112e42"></path><path d="M394 0L339 0L318 35Z" fill="#297ea6" stroke="#297ea6"></path><path d="M308 31L267 0L241 69Z" fill="#081a28" stroke="#081a28"></path><path d="M209 540L226 540L251 498Z" fill="#0c2435" stroke="#0c2435"></path><path d="M240 540L226 540L569 591Z" fill="#297ea6" stroke="#297ea6"></path><path d="M723 525L727 508L672 532Z" fill="#297ea6" stroke="#297ea6"></path><path d="M625 72L697 13L679 0Z" fill="#15384f" stroke="#15384f"></path><path d="M134 278L129 322L187 318Z" fill="#19435d" stroke="#19435d"></path><path d="M158 157L191 174L171 122Z" fill="#19435d" stroke="#19435d"></path><path d="M789 421L783 405L741 456Z" fill="#297ea6" stroke="#297ea6"></path><path d="M741 456L783 405L723 412Z" fill="#081a28" stroke="#081a28"></path><path d="M826 303L811 215L740 282Z" fill="#19435d" stroke="#19435d"></path><path d="M727 508L763 459L741 456Z" fill="#297ea6" stroke="#297ea6"></path><path d="M171 122L191 174L222 130Z" fill="#1d4e6b" stroke="#1d4e6b"></path><path d="M684 540L723 525L672 532Z" fill="#246688" stroke="#246688"></path><path d="M727 508L783 503L763 459Z" fill="#0c2435" stroke="#0c2435"></path><path d="M719 540L723 525L684 540Z" fill="#0c2435" stroke="#0c2435"></path><path d="M625 72L663 90L697 13Z" fill="#277297" stroke="#277297"></path><path d="M199 80L171 122L222 130Z" fill="#0c2435" stroke="#0c2435"></path><path d="M176 499L209 540L251 498Z" fill="#205a7a" stroke="#205a7a"></path><path d="M226 540L209 540L569 591Z" fill="#081a28" stroke="#081a28"></path><path d="M176 499L251 498L178 449Z" fill="#0c2435" stroke="#0c2435"></path><path d="M176 499L178 449L114 444Z" fill="#0c2435" stroke="#0c2435"></path><path d="M107 392L167 357L140 351Z" fill="#277297" stroke="#277297"></path><path d="M796 494L789 421L763 459Z" fill="#297ea6" stroke="#297ea6"></path><path d="M763 459L789 421L741 456Z" fill="#15384f" stroke="#15384f"></path><path d="M783 405L814 358L728 386Z" fill="#081a28" stroke="#081a28"></path><path d="M113 236L134 278L142 210Z" fill="#246688" stroke="#246688"></path><path d="M113 236L116 287L134 278Z" fill="#15384f" stroke="#15384f"></path><path d="M134 278L116 287L129 322Z" fill="#00101c" stroke="#00101c"></path><path d="M81 349L107 392L140 351Z" fill="#112e42" stroke="#112e42"></path><path d="M195 13L199 80L241 69Z" fill="#0c2435" stroke="#0c2435"></path><path d="M241 69L199 80L222 130Z" fill="#0c2435" stroke="#0c2435"></path><path d="M569 591L719 540L684 540Z" fill="#205a7a" stroke="#205a7a"></path><path d="M770 540L783 503L727 508Z" fill="#246688" stroke="#246688"></path><path d="M144 101L152 148L171 122Z" fill="#297ea6" stroke="#297ea6"></path><path d="M171 122L152 148L158 157Z" fill="#205a7a" stroke="#205a7a"></path><path d="M158 157L152 148L142 210Z" fill="#112e42" stroke="#112e42"></path><path d="M789 421L814 358L783 405Z" fill="#00101c" stroke="#00101c"></path><path d="M727 141L741 85L705 94Z" fill="#246688" stroke="#246688"></path><path d="M697 13L663 90L692 91Z" fill="#00101c" stroke="#00101c"></path><path d="M777 113L741 85L727 141Z" fill="#081a28" stroke="#081a28"></path><path d="M59 167L113 236L142 210Z" fill="#00101c" stroke="#00101c"></path><path d="M826 303L740 282L751 312Z" fill="#277297" stroke="#277297"></path><path d="M339 0L272 0L308 31Z" fill="#15384f" stroke="#15384f"></path><path d="M272 0L267 0L308 31Z" fill="#112e42" stroke="#112e42"></path><path d="M814 358L826 303L751 312Z" fill="#0c2435" stroke="#0c2435"></path><path d="M100 406L107 392L81 349Z" fill="#0c2435" stroke="#0c2435"></path><path d="M81 349L140 351L129 322Z" fill="#1d4e6b" stroke="#1d4e6b"></path><path d="M829 159L777 113L727 141Z" fill="#00101c" stroke="#00101c"></path><path d="M267 0L253 0L241 69Z" fill="#1d4e6b" stroke="#1d4e6b"></path><path d="M152 80L144 101L171 122Z" fill="#0c2435" stroke="#0c2435"></path><path d="M107 392L114 444L178 449Z" fill="#205a7a" stroke="#205a7a"></path><path d="M176 499L111 531L209 540Z" fill="#112e42" stroke="#112e42"></path><path d="M692 91L705 94L729 41Z" fill="#00101c" stroke="#00101c"></path><path d="M697 13L692 91L729 41Z" fill="#0c2435" stroke="#0c2435"></path><path d="M729 41L705 94L741 85Z" fill="#0c2435" stroke="#0c2435"></path><path d="M81 349L129 322L66 316Z" fill="#00101c" stroke="#00101c"></path><path d="M107 392L100 406L114 444Z" fill="#15384f" stroke="#15384f"></path><path d="M788 33L729 41L741 85Z" fill="#0c2435" stroke="#0c2435"></path><path d="M697 13L681 0L679 0Z" fill="#277297" stroke="#277297"></path><path d="M770 540L727 508L723 525Z" fill="#297ea6" stroke="#297ea6"></path><path d="M859 428L840 353L814 358Z" fill="#081a28" stroke="#081a28"></path><path d="M814 358L840 353L826 303Z" fill="#0c2435" stroke="#0c2435"></path><path d="M152 80L171 122L199 80Z" fill="#081a28" stroke="#081a28"></path><path d="M152 148L109 126L142 210Z" fill="#246688" stroke="#246688"></path><path d="M693 -1L686 0L697 13Z" fill="#205a7a" stroke="#205a7a"></path><path d="M697 13L686 0L681 0Z" fill="#246688" stroke="#246688"></path><path d="M253 0L225 9L241 69Z" fill="#277297" stroke="#277297"></path><path d="M867 358L840 353L859 428Z" fill="#246688" stroke="#246688"></path><path d="M843 229L831 187L811 215Z" fill="#297ea6" stroke="#297ea6"></path><path d="M783 503L796 494L763 459Z" fill="#112e42" stroke="#112e42"></path><path d="M66 316L129 322L116 287Z" fill="#205a7a" stroke="#205a7a"></path><path d="M66 316L116 287L19 269Z" fill="#205a7a" stroke="#205a7a"></path><path d="M141 37L152 80L199 80Z" fill="#00101c" stroke="#00101c"></path><path d="M774 0L693 -1L697 13Z" fill="#081a28" stroke="#081a28"></path><path d="M686 0L693 -1L681 0Z" fill="#0c2435" stroke="#0c2435"></path><path d="M681 0L693 -1L679 0Z" fill="#246688" stroke="#246688"></path><path d="M679 0L773 -50L616 0Z" fill="#112e42" stroke="#112e42"></path><path d="M616 0L773 -50L595 0Z" fill="#297ea6" stroke="#297ea6"></path><path d="M595 0L773 -50L520 0Z" fill="#277297" stroke="#277297"></path><path d="M520 0L773 -50L511 0Z" fill="#277297" stroke="#277297"></path><path d="M511 0L773 -50L474 0Z" fill="#0c2435" stroke="#0c2435"></path><path d="M474 0L773 -50L394 0Z" fill="#0c2435" stroke="#0c2435"></path><path d="M394 0L67 -45L339 0Z" fill="#246688" stroke="#246688"></path><path d="M67 -45L267 0L272 0Z" fill="#0c2435" stroke="#0c2435"></path><path d="M67 -45L253 0L267 0Z" fill="#205a7a" stroke="#205a7a"></path><path d="M67 -45L167 0L253 0Z" fill="#00101c" stroke="#00101c"></path><path d="M719 540L770 540L723 525Z" fill="#0c2435" stroke="#0c2435"></path><path d="M797 529L812 498L796 494Z" fill="#297ea6" stroke="#297ea6"></path><path d="M787 556L770 540L719 540Z" fill="#0c2435" stroke="#0c2435"></path><path d="M77 419L91 416L100 406Z" fill="#15384f" stroke="#15384f"></path><path d="M100 406L91 416L114 444Z" fill="#277297" stroke="#277297"></path><path d="M843 229L811 215L826 303Z" fill="#246688" stroke="#246688"></path><path d="M811 215L829 159L727 141Z" fill="#081a28" stroke="#081a28"></path><path d="M777 113L788 33L741 85Z" fill="#205a7a" stroke="#205a7a"></path><path d="M861 260L843 229L826 303Z" fill="#1d4e6b" stroke="#1d4e6b"></path><path d="M865 185L829 159L831 187Z" fill="#19435d" stroke="#19435d"></path><path d="M831 187L829 159L811 215Z" fill="#112e42" stroke="#112e42"></path><path d="M19 269L116 287L113 236Z" fill="#19435d" stroke="#19435d"></path><path d="M81 349L77 419L100 406Z" fill="#205a7a" stroke="#205a7a"></path><path d="M102 116L109 126L144 101Z" fill="#297ea6" stroke="#297ea6"></path><path d="M144 101L109 126L152 148Z" fill="#112e42" stroke="#112e42"></path><path d="M167 0L195 13L225 9Z" fill="#15384f" stroke="#15384f"></path><path d="M225 9L195 13L241 69Z" fill="#1d4e6b" stroke="#1d4e6b"></path><path d="M152 80L102 116L144 101Z" fill="#205a7a" stroke="#205a7a"></path><path d="M797 529L796 494L783 503Z" fill="#19435d" stroke="#19435d"></path><path d="M796 494L812 498L789 421Z" fill="#1d4e6b" stroke="#1d4e6b"></path><path d="M867 358L826 303L840 353Z" fill="#277297" stroke="#277297"></path><path d="M874 266L861 260L826 303Z" fill="#1d4e6b" stroke="#1d4e6b"></path><path d="M843 229L865 185L831 187Z" fill="#19435d" stroke="#19435d"></path><path d="M52 430L77 419L0 387Z" fill="#1d4e6b" stroke="#1d4e6b"></path><path d="M91 416L77 419L114 444Z" fill="#277297" stroke="#277297"></path><path d="M114 444L106 521L176 499Z" fill="#15384f" stroke="#15384f"></path><path d="M770 540L797 529L783 503Z" fill="#00101c" stroke="#00101c"></path><path d="M141 37L102 116L152 80Z" fill="#297ea6" stroke="#297ea6"></path><path d="M109 126L59 167L142 210Z" fill="#246688" stroke="#246688"></path><path d="M859 428L814 358L789 421Z" fill="#246688" stroke="#246688"></path><path d="M797 529L833 540L812 498Z" fill="#112e42" stroke="#112e42"></path><path d="M770 540L787 556L797 529Z" fill="#205a7a" stroke="#205a7a"></path><path d="M569 591L787 556L719 540Z" fill="#297ea6" stroke="#297ea6"></path><path d="M874 266L872 254L861 260Z" fill="#205a7a" stroke="#205a7a"></path><path d="M861 260L872 254L843 229Z" fill="#1d4e6b" stroke="#1d4e6b"></path><path d="M867 358L874 266L826 303Z" fill="#246688" stroke="#246688"></path><path d="M863 540L859 428L812 498Z" fill="#205a7a" stroke="#205a7a"></path><path d="M812 498L859 428L789 421Z" fill="#277297" stroke="#277297"></path><path d="M52 450L106 521L114 444Z" fill="#081a28" stroke="#081a28"></path><path d="M106 521L111 531L176 499Z" fill="#00101c" stroke="#00101c"></path><path d="M209 540L76 540L569 591Z" fill="#205a7a" stroke="#205a7a"></path><path d="M195 13L141 37L199 80Z" fill="#205a7a" stroke="#205a7a"></path><path d="M909 140L865 185L960 206Z" fill="#277297" stroke="#277297"></path><path d="M872 254L865 185L843 229Z" fill="#15384f" stroke="#15384f"></path><path d="M861 29L788 33L777 113Z" fill="#205a7a" stroke="#205a7a"></path><path d="M729 41L774 0L697 13Z" fill="#0c2435" stroke="#0c2435"></path><path d="M810 -5L788 33L843 0Z" fill="#081a28" stroke="#081a28"></path><path d="M253 0L167 0L225 9Z" fill="#205a7a" stroke="#205a7a"></path><path d="M195 13L167 0L141 37Z" fill="#297ea6" stroke="#297ea6"></path><path d="M110 -9L167 0L67 -45Z" fill="#205a7a" stroke="#205a7a"></path><path d="M61 140L109 126L102 116Z" fill="#081a28" stroke="#081a28"></path><path d="M61 140L59 167L109 126Z" fill="#297ea6" stroke="#297ea6"></path><path d="M0 387L77 419L81 349Z" fill="#1d4e6b" stroke="#1d4e6b"></path><path d="M77 419L52 450L114 444Z" fill="#19435d" stroke="#19435d"></path><path d="M106 521L76 540L111 531Z" fill="#19435d" stroke="#19435d"></path><path d="M0 373L81 349L66 316Z" fill="#246688" stroke="#246688"></path><path d="M859 428L889 366L867 358Z" fill="#00101c" stroke="#00101c"></path><path d="M867 358L924 345L874 266Z" fill="#00101c" stroke="#00101c"></path><path d="M874 266L940 260L872 254Z" fill="#19435d" stroke="#19435d"></path><path d="M0 57L61 140L102 116Z" fill="#246688" stroke="#246688"></path><path d="M91 -4L102 116L141 37Z" fill="#081a28" stroke="#081a28"></path><path d="M52 430L52 450L77 419Z" fill="#277297" stroke="#277297"></path><path d="M788 33L774 0L729 41Z" fill="#277297" stroke="#277297"></path><path d="M810 -5L774 0L788 33Z" fill="#081a28" stroke="#081a28"></path><path d="M787 556L833 540L797 529Z" fill="#297ea6" stroke="#297ea6"></path><path d="M924 406L914 364L889 366Z" fill="#0c2435" stroke="#0c2435"></path><path d="M0 265L19 269L0 232Z" fill="#205a7a" stroke="#205a7a"></path><path d="M0 232L19 269L113 236Z" fill="#081a28" stroke="#081a28"></path><path d="M52 430L1 448L52 450Z" fill="#19435d" stroke="#19435d"></path><path d="M52 450L76 540L106 521Z" fill="#19435d" stroke="#19435d"></path><path d="M111 531L76 540L209 540Z" fill="#1d4e6b" stroke="#1d4e6b"></path><path d="M924 406L889 366L859 428Z" fill="#15384f" stroke="#15384f"></path><path d="M889 366L924 345L867 358Z" fill="#0c2435" stroke="#0c2435"></path><path d="M167 0L117 0L141 37Z" fill="#112e42" stroke="#112e42"></path><path d="M110 -9L117 0L167 0Z" fill="#112e42" stroke="#112e42"></path><path d="M110 -9L115 0L117 0Z" fill="#205a7a" stroke="#205a7a"></path><path d="M117 0L115 0L141 37Z" fill="#246688" stroke="#246688"></path><path d="M926 350L924 345L914 364Z" fill="#081a28" stroke="#081a28"></path><path d="M914 364L924 345L889 366Z" fill="#19435d" stroke="#19435d"></path><path d="M787 556L863 540L833 540Z" fill="#00101c" stroke="#00101c"></path><path d="M833 540L863 540L812 498Z" fill="#00101c" stroke="#00101c"></path><path d="M0 232L113 236L59 167Z" fill="#246688" stroke="#246688"></path><path d="M19 269L-3 312L66 316Z" fill="#277297" stroke="#277297"></path><path d="M52 450L46 540L76 540Z" fill="#0c2435" stroke="#0c2435"></path><path d="M0 232L59 167L0 216Z" fill="#15384f" stroke="#15384f"></path><path d="M0 265L-3 312L19 269Z" fill="#277297" stroke="#277297"></path><path d="M960 396L926 350L914 364Z" fill="#246688" stroke="#246688"></path><path d="M909 140L829 159L865 185Z" fill="#081a28" stroke="#081a28"></path><path d="M774 0L773 -50L693 -1Z" fill="#1d4e6b" stroke="#1d4e6b"></path><path d="M693 -1L773 -50L679 0Z" fill="#277297" stroke="#277297"></path><path d="M861 29L777 113L903 97Z" fill="#277297" stroke="#277297"></path><path d="M865 185L872 254L960 213Z" fill="#1d4e6b" stroke="#1d4e6b"></path><path d="M-3 312L0 373L66 316Z" fill="#246688" stroke="#246688"></path><path d="M110 -9L109 0L115 0Z" fill="#00101c" stroke="#00101c"></path><path d="M115 0L109 0L141 37Z" fill="#15384f" stroke="#15384f"></path><path d="M0 216L59 167L0 192Z" fill="#277297" stroke="#277297"></path><path d="M0 265L-38 238L-3 312Z" fill="#00101c" stroke="#00101c"></path><path d="M-38 238L0 387L0 373Z" fill="#246688" stroke="#246688"></path><path d="M0 373L0 387L81 349Z" fill="#277297" stroke="#277297"></path><path d="M0 192L59 167L0 159Z" fill="#15384f" stroke="#15384f"></path><path d="M0 232L-38 238L0 265Z" fill="#081a28" stroke="#081a28"></path><path d="M960 465L924 406L859 428Z" fill="#081a28" stroke="#081a28"></path><path d="M810 -5L773 -50L774 0Z" fill="#205a7a" stroke="#205a7a"></path><path d="M67 -45L272 0L339 0Z" fill="#081a28" stroke="#081a28"></path><path d="M0 159L59 167L61 140Z" fill="#112e42" stroke="#112e42"></path><path d="M-38 238L0 406L0 387Z" fill="#19435d" stroke="#19435d"></path><path d="M0 387L0 406L52 430Z" fill="#00101c" stroke="#00101c"></path><path d="M91 -4L141 37L109 0Z" fill="#1d4e6b" stroke="#1d4e6b"></path><path d="M0 216L-38 238L0 232Z" fill="#19435d" stroke="#19435d"></path><path d="M940 260L874 266L924 345Z" fill="#205a7a" stroke="#205a7a"></path><path d="M0 478L46 540L52 450Z" fill="#297ea6" stroke="#297ea6"></path><path d="M76 540L46 540L569 591Z" fill="#081a28" stroke="#081a28"></path><path d="M960 336L924 345L960 339Z" fill="#00101c" stroke="#00101c"></path><path d="M960 336L940 260L924 345Z" fill="#277297" stroke="#277297"></path><path d="M0 478L1 448L-38 238Z" fill="#00101c" stroke="#00101c"></path><path d="M0 406L1 448L52 430Z" fill="#297ea6" stroke="#297ea6"></path><path d="M110 -9L91 -4L109 0Z" fill="#246688" stroke="#246688"></path><path d="M0 57L0 159L61 140Z" fill="#246688" stroke="#246688"></path><path d="M0 192L-38 238L0 216Z" fill="#1d4e6b" stroke="#1d4e6b"></path><path d="M810 -5L843 0L773 -50Z" fill="#00101c" stroke="#00101c"></path><path d="M903 97L777 113L829 159Z" fill="#112e42" stroke="#112e42"></path><path d="M917 124L903 97L909 140Z" fill="#112e42" stroke="#112e42"></path><path d="M909 140L903 97L829 159Z" fill="#1d4e6b" stroke="#1d4e6b"></path><path d="M861 29L843 0L788 33Z" fill="#205a7a" stroke="#205a7a"></path><path d="M863 540L892 540L859 428Z" fill="#15384f" stroke="#15384f"></path><path d="M787 556L892 540L863 540Z" fill="#297ea6" stroke="#297ea6"></path><path d="M960 540L892 540L787 556Z" fill="#0c2435" stroke="#0c2435"></path><path d="M960 118L917 124L909 140Z" fill="#277297" stroke="#277297"></path><path d="M1 448L0 478L52 450Z" fill="#00101c" stroke="#00101c"></path><path d="M-38 238L1 448L0 406Z" fill="#0c2435" stroke="#0c2435"></path><path d="M960 39L864 11L861 29Z" fill="#081a28" stroke="#081a28"></path><path d="M861 29L864 11L843 0Z" fill="#1d4e6b" stroke="#1d4e6b"></path><path d="M843 0L960 0L773 -50Z" fill="#205a7a" stroke="#205a7a"></path><path d="M960 39L861 29L903 97Z" fill="#19435d" stroke="#19435d"></path><path d="M960 339L924 345L926 350Z" fill="#112e42" stroke="#112e42"></path><path d="M940 260L960 213L872 254Z" fill="#277297" stroke="#277297"></path><path d="M960 339L926 350L960 344Z" fill="#205a7a" stroke="#205a7a"></path><path d="M960 344L926 350L960 396Z" fill="#1d4e6b" stroke="#1d4e6b"></path><path d="M960 396L914 364L924 406Z" fill="#19435d" stroke="#19435d"></path><path d="M0 159L-38 238L0 192Z" fill="#19435d" stroke="#19435d"></path><path d="M-3 312L-38 238L0 373Z" fill="#081a28" stroke="#081a28"></path><path d="M960 465L960 396L924 406Z" fill="#15384f" stroke="#15384f"></path><path d="M1001 245L960 213L940 260Z" fill="#081a28" stroke="#081a28"></path><path d="M917 124L960 84L903 97Z" fill="#205a7a" stroke="#205a7a"></path><path d="M960 213L960 206L865 185Z" fill="#15384f" stroke="#15384f"></path><path d="M-38 238L0 540L0 478Z" fill="#277297" stroke="#277297"></path><path d="M0 478L0 540L46 540Z" fill="#277297" stroke="#277297"></path><path d="M46 540L0 540L569 591Z" fill="#205a7a" stroke="#205a7a"></path><path d="M892 540L960 465L859 428Z" fill="#081a28" stroke="#081a28"></path><path d="M91 -4L0 57L102 116Z" fill="#0c2435" stroke="#0c2435"></path><path d="M0 159L-16 44L-38 238Z" fill="#0c2435" stroke="#0c2435"></path><path d="M110 -9L67 -45L91 -4Z" fill="#277297" stroke="#277297"></path><path d="M91 -4L0 0L0 57Z" fill="#205a7a" stroke="#205a7a"></path><path d="M773 -50L67 -45L394 0Z" fill="#00101c" stroke="#00101c"></path><path d="M960 206L960 118L909 140Z" fill="#112e42" stroke="#112e42"></path><path d="M1006 343L1001 245L960 336Z" fill="#205a7a" stroke="#205a7a"></path><path d="M960 336L1001 245L940 260Z" fill="#246688" stroke="#246688"></path><path d="M960 213L1001 245L960 206Z" fill="#081a28" stroke="#081a28"></path><path d="M960 206L1001 245L960 118Z" fill="#19435d" stroke="#19435d"></path><path d="M1006 343L960 336L960 339Z" fill="#081a28" stroke="#081a28"></path><path d="M1006 343L960 339L960 344Z" fill="#19435d" stroke="#19435d"></path><path d="M1006 343L960 344L960 396Z" fill="#00101c" stroke="#00101c"></path><path d="M960 465L1006 343L960 396Z" fill="#15384f" stroke="#15384f"></path><path d="M1001 245L960 84L960 118Z" fill="#15384f" stroke="#15384f"></path><path d="M960 118L960 84L917 124Z" fill="#081a28" stroke="#081a28"></path><path d="M0 0L-16 44L0 57Z" fill="#0c2435" stroke="#0c2435"></path><path d="M0 57L-16 44L0 159Z" fill="#19435d" stroke="#19435d"></path><path d="M975 0L960 78L960 84Z" fill="#15384f" stroke="#15384f"></path><path d="M960 84L960 78L903 97Z" fill="#297ea6" stroke="#297ea6"></path><path d="M892 540L960 540L960 465Z" fill="#1d4e6b" stroke="#1d4e6b"></path><path d="M960 465L985 540L1006 343Z" fill="#205a7a" stroke="#205a7a"></path><path d="M985 540L960 540L787 556Z" fill="#277297" stroke="#277297"></path><path d="M0 -8L0 0L91 -4Z" fill="#297ea6" stroke="#297ea6"></path><path d="M67 -45L0 -8L91 -4Z" fill="#246688" stroke="#246688"></path><path d="M0 0L0 -8L-16 44Z" fill="#081a28" stroke="#081a28"></path><path d="M975 0L960 39L960 78Z" fill="#246688" stroke="#246688"></path><path d="M960 78L960 39L903 97Z" fill="#00101c" stroke="#00101c"></path><path d="M864 11L960 0L843 0Z" fill="#297ea6" stroke="#297ea6"></path><path d="M569 591L985 540L787 556Z" fill="#19435d" stroke="#19435d"></path><path d="M960 540L985 540L960 465Z" fill="#205a7a" stroke="#205a7a"></path><path d="M960 39L960 0L864 11Z" fill="#081a28" stroke="#081a28"></path><path d="M975 0L960 0L960 39Z" fill="#00101c" stroke="#00101c"></path><path d="M1001 245L975 0L960 84Z" fill="#277297" stroke="#277297"></path><path d="M960 0L975 0L773 -50Z" fill="#15384f" stroke="#15384f"></path></g></svg>